<svg xmlns="http://www.w3.org/2000/svg" width="520" height="240" viewBox="0 0 520 240" fill="none">
  <title>everyskill — VT323 + ASCII lockup</title>
  <style>
    .every {
      font-family: 'VT323', monospace;
      font-size: 82px;
      fill: #7a9ab4;
      fill-opacity: 0.92;
      letter-spacing: 1px;
    }
    .skill {
      font-family: monospace;
      font-size: 20px;
      font-weight: 800;
      fill: #1a4070;
      stroke: #1a4070;
      stroke-width: 0.7;
      paint-order: stroke;
    }
  </style>

  <g id="mark" transform="translate(10, 6) scale(1.2)">

    
    <g id="person-back-left">
      <circle cx="37" cy="67" r="2.6" fill="#7a9ab4" opacity="0.45" />
      <path d="M33,73 Q37,75.5 41,73" stroke="#7a9ab4" stroke-width="1.3" stroke-linecap="round" fill="none" opacity="0.45" />
    </g>
    <g id="person-back-right">
      <circle cx="88" cy="65" r="2.6" fill="#7a9ab4" opacity="0.45" />
      <path d="M84,71 Q88,73.5 92,71" stroke="#7a9ab4" stroke-width="1.3" stroke-linecap="round" fill="none" opacity="0.45" />
    </g>

    
    <g id="web-adjacent" stroke="#7a9ab8" stroke-width="1.2" opacity="0.4">
      <line x1="122" y1="88" x2="117" y2="110" />
      <line x1="117" y1="110" x2="74" y2="123" />
      <line x1="74" y1="123" x2="27" y2="115" />
      <line x1="27" y1="115" x2="10" y2="92" />
      <line x1="10" y1="92" x2="37" y2="71" />
      <line x1="37" y1="71" x2="88" y2="69" />
      <line x1="88" y1="69" x2="122" y2="88" />
    </g>
    <g id="web-skip1" stroke="#6a8aa8" stroke-width="1" opacity="0.28">
      <line x1="122" y1="88" x2="74" y2="123" />
      <line x1="117" y1="110" x2="27" y2="115" />
      <line x1="74" y1="123" x2="10" y2="92" />
      <line x1="27" y1="115" x2="37" y2="71" opacity="0.25" />
      <line x1="10" y1="92" x2="88" y2="69" />
      <line x1="37" y1="71" x2="122" y2="88" />
      <line x1="88" y1="69" x2="117" y2="110" opacity="0.25" />
    </g>
    <g id="web-cross" stroke="#6a8aa8" stroke-width="0.8">
      <line x1="122" y1="88" x2="27" y2="115" opacity="0.18" />
      <line x1="122" y1="88" x2="10" y2="92" opacity="0.18" />
      <line x1="117" y1="110" x2="37" y2="71" opacity="0.18" />
      <line x1="117" y1="110" x2="10" y2="92" opacity="0.18" />
      <line x1="74" y1="123" x2="37" y2="71" opacity="0.16" />
      <line x1="74" y1="123" x2="88" y2="69" opacity="0.16" />
      <line x1="27" y1="115" x2="88" y2="69" opacity="0.16" />
      <line x1="27" y1="115" x2="122" y2="88" opacity="0.16" />
      <line x1="10" y1="92" x2="117" y2="110" opacity="0.16" />
      <line x1="10" y1="92" x2="74" y2="123" opacity="0.16" />
      <line x1="37" y1="71" x2="74" y2="123" opacity="0.16" />
      <line x1="37" y1="71" x2="117" y2="110" opacity="0.16" />
      <line x1="88" y1="69" x2="27" y2="115" opacity="0.16" />
      <line x1="88" y1="69" x2="74" y2="123" opacity="0.16" />
    </g>

    
    <g id="energy-flows" stroke="#5a8aaa" stroke-width="0.9">
      <line x1="122" y1="88" x2="76" y2="92" opacity="0.2" />
      <line x1="117" y1="110" x2="76" y2="98" opacity="0.18" />
      <line x1="74" y1="123" x2="68" y2="102" opacity="0.16" />
      <line x1="27" y1="115" x2="60" y2="100" opacity="0.18" />
      <line x1="10" y1="92" x2="56" y2="92" opacity="0.2" />
      <line x1="37" y1="71" x2="58" y2="86" stroke-width="0.8" opacity="0.18" />
      <line x1="88" y1="69" x2="74" y2="86" stroke-width="0.8" opacity="0.18" />
    </g>

    
    <g id="quiver">
      <g id="arrow-left">
        <line x1="60" y1="92" x2="60" y2="30.0" stroke="#1a4070" stroke-width="2.5" stroke-linecap="round" />
        <polygon points="60,22 54,34 66,34" fill="#1a4070" />
      </g>
      <g id="arrow-center">
        <line x1="68" y1="88" x2="68" y2="10.0" stroke="#0a2a50" stroke-width="3" stroke-linecap="round" />
        <polygon points="68,2 61,16 75,16" fill="#0a2a50" />
      </g>
      <g id="arrow-right">
        <line x1="76" y1="92" x2="76" y2="34.0" stroke="#1a4070" stroke-width="2.5" stroke-linecap="round" />
        <polygon points="76,26 70,38 82,38" fill="#1a4070" />
      </g>
      <ellipse id="quiver-binding" cx="68" cy="94" rx="12" ry="4.5" fill="none" stroke="#2a5080" stroke-width="1.3" opacity="0.3" />
    </g>

    
    <g id="person-mid-right">
      <circle cx="122" cy="83" r="3.3" fill="#2a5a88" />
      <path d="M116.5,91 Q122,94 127.5,91" stroke="#2a5a88" stroke-width="1.8" stroke-linecap="round" fill="none" />
    </g>
    <g id="person-mid-left">
      <circle cx="10" cy="87" r="3.3" fill="#2a5a88" />
      <path d="M4.5,95 Q10,98 15.5,95" stroke="#2a5a88" stroke-width="1.8" stroke-linecap="round" fill="none" />
    </g>

    
    <g id="person-front-right">
      <circle cx="117" cy="105" r="3.8" fill="#1a4070" />
      <path d="M110,114 Q117,118 124,114" stroke="#1a4070" stroke-width="2.2" stroke-linecap="round" fill="none" />
    </g>
    <g id="person-front-center">
      <circle cx="74" cy="118" r="4.5" fill="#0a2a50" />
      <path d="M66,127.5 Q74,132 82,127.5" stroke="#0a2a50" stroke-width="2.5" stroke-linecap="round" fill="none" />
    </g>
    <g id="person-front-left">
      <circle cx="27" cy="110" r="3.8" fill="#1a4070" />
      <path d="M20,119 Q27,123 34,119" stroke="#1a4070" stroke-width="2.2" stroke-linecap="round" fill="none" />
    </g>
  </g>

  
  

  <g id="wordmark">
    <text id="every" x="140.0" y="61.80" class="every">every</text>

    <g id="skill-ascii" transform="translate(199.00, 102.00) scale(0.40)">
      <text x="0" y="0" class="skill" xml:space="preserve">
          <tspan x="0" dy="0">         888      d8b 888 888</tspan>
          <tspan x="0" dy="22">         888      Y8P 888 888</tspan>
          <tspan x="0" dy="22">         888          888 888</tspan>
          <tspan x="0" dy="22">.d8888b  888  888 888 888 888</tspan>
          <tspan x="0" dy="22">88K      888 .88P 888 888 888</tspan>
          <tspan x="0" dy="22">"Y8888b. 888888K  888 888 888</tspan>
          <tspan x="0" dy="22">     X88 888 "88b 888 888 888</tspan>
          <tspan x="0" dy="22"> 88888P' 888  888 888 888 888</tspan>
      </text>
    </g>
  </g>
</svg>